<svg xmlns="http://www.w3.org/2000/svg" viewBox="0 0 1024 1024">
  <rect x="110" y="110" width="804" height="804" rx="180" fill="#f4f6f2"/>
  <path d="M176 296h384a72 72 0 0 1 72 72v0a72 72 0 0 1-72 72H176a72 72 0 0 1-72-72v0a72 72 0 0 1 72-72z" fill="#86c9bd"/>
  <path d="M320 440h384a72 72 0 0 1 72 72v0a72 72 0 0 1-72 72H320a72 72 0 0 1-72-72v0a72 72 0 0 1 72-72z" fill="#15804b"/>
  <path d="M464 584h384a72 72 0 0 1 72 72v0a72 72 0 0 1-72 72H464a72 72 0 0 1-72-72v0a72 72 0 0 1 72-72z" fill="#e4c693"/>
</svg>
